<svg width="70" height="70" viewBox="0 0 70 70" fill="none" xmlns="http://www.w3.org/2000/svg">
<rect width="70" height="70" rx="5" fill="white"/>
<path d="M26.3828 45.1562C26.3828 44.6927 26.4714 44.2578 26.6484 43.8516C26.8255 43.4453 27.0651 43.0911 27.3672 42.7891C27.6745 42.4818 28.0312 42.2396 28.4375 42.0625C28.8438 41.8854 29.2786 41.7969 29.7422 41.7969H34.8828V44.0391H29.7422C29.5859 44.0391 29.4401 44.0677 29.3047 44.125C29.1693 44.1823 29.0495 44.263 28.9453 44.3672C28.8464 44.4661 28.7682 44.5833 28.7109 44.7188C28.6536 44.8542 28.625 45 28.625 45.1562C28.625 45.3125 28.6536 45.4609 28.7109 45.6016C28.7682 45.737 28.8464 45.8568 28.9453 45.9609C29.0495 46.0599 29.1693 46.138 29.3047 46.1953C29.4401 46.2526 29.5859 46.2812 29.7422 46.2812H31.9844C32.4479 46.2812 32.8828 46.3698 33.2891 46.5469C33.7005 46.7188 34.0573 46.9583 34.3594 47.2656C34.6667 47.5677 34.9062 47.9245 35.0781 48.3359C35.2552 48.7422 35.3438 49.1771 35.3438 49.6406C35.3438 50.1042 35.2552 50.5391 35.0781 50.9453C34.9062 51.3516 34.6667 51.7083 34.3594 52.0156C34.0573 52.3177 33.7005 52.5573 33.2891 52.7344C32.8828 52.9115 32.4479 53 31.9844 53H27.0078V50.7578H31.9844C32.1406 50.7578 32.2865 50.7292 32.4219 50.6719C32.5573 50.6146 32.6745 50.5365 32.7734 50.4375C32.8776 50.3333 32.9583 50.2135 33.0156 50.0781C33.0729 49.9427 33.1016 49.7969 33.1016 49.6406C33.1016 49.4844 33.0729 49.3385 33.0156 49.2031C32.9583 49.0677 32.8776 48.9505 32.7734 48.8516C32.6745 48.7474 32.5573 48.6667 32.4219 48.6094C32.2865 48.5521 32.1406 48.5234 31.9844 48.5234H29.7422C29.2786 48.5234 28.8438 48.4349 28.4375 48.2578C28.0312 48.0807 27.6745 47.8411 27.3672 47.5391C27.0651 47.2318 26.8255 46.875 26.6484 46.4688C26.4714 46.0573 26.3828 45.6198 26.3828 45.1562ZM40.6484 53C40.1328 53 39.6484 52.9036 39.1953 52.7109C38.7422 52.513 38.3438 52.2448 38 51.9062C37.6615 51.5625 37.3932 51.1641 37.1953 50.7109C37.0026 50.2578 36.9062 49.7734 36.9062 49.2578V46.7734H35.8672V44.6484H36.9062V41.3047H39.0312V44.6484H42.2656V46.7734H39.0312V49.2578C39.0312 49.4818 39.0729 49.6927 39.1562 49.8906C39.2396 50.0833 39.3542 50.2526 39.5 50.3984C39.6458 50.5443 39.8177 50.6615 40.0156 50.75C40.2135 50.8333 40.4245 50.875 40.6484 50.875H42.2656V53H40.6484ZM51.5547 48.7422C51.5547 49.3672 51.4427 49.9505 51.2188 50.4922C50.9948 51.0286 50.6901 51.4948 50.3047 51.8906C49.9193 52.2812 49.4661 52.5911 48.9453 52.8203C48.4297 53.0443 47.875 53.1562 47.2812 53.1562C46.6927 53.1562 46.138 53.0443 45.6172 52.8203C45.1016 52.5911 44.6484 52.2812 44.2578 51.8906C43.8724 51.4948 43.5677 51.0286 43.3438 50.4922C43.1198 49.9505 43.0078 49.3672 43.0078 48.7422C43.0078 48.1068 43.1198 47.5182 43.3438 46.9766C43.5677 46.4349 43.8724 45.9688 44.2578 45.5781C44.6484 45.1823 45.1016 44.8724 45.6172 44.6484C46.138 44.4245 46.6927 44.3125 47.2812 44.3125C47.875 44.3125 48.4297 44.4193 48.9453 44.6328C49.4661 44.8411 49.9193 45.1406 50.3047 45.5312C50.6901 45.9167 50.9948 46.3828 51.2188 46.9297C51.4427 47.4714 51.5547 48.0755 51.5547 48.7422ZM49.4062 48.7422C49.4062 48.3984 49.349 48.0885 49.2344 47.8125C49.125 47.5312 48.974 47.2917 48.7812 47.0938C48.5885 46.8906 48.362 46.737 48.1016 46.6328C47.8464 46.5234 47.5729 46.4688 47.2812 46.4688C46.9896 46.4688 46.7135 46.5234 46.4531 46.6328C46.1979 46.737 45.974 46.8906 45.7812 47.0938C45.5938 47.2917 45.4453 47.5312 45.3359 47.8125C45.2266 48.0885 45.1719 48.3984 45.1719 48.7422C45.1719 49.0651 45.2266 49.3646 45.3359 49.6406C45.4453 49.9167 45.5938 50.1562 45.7812 50.3594C45.974 50.5625 46.1979 50.724 46.4531 50.8438C46.7135 50.9583 46.9896 51.0156 47.2812 51.0156C47.5729 51.0156 47.8464 50.9609 48.1016 50.8516C48.362 50.7422 48.5885 50.5885 48.7812 50.3906C48.974 50.1927 49.125 49.9531 49.2344 49.6719C49.349 49.3906 49.4062 49.0807 49.4062 48.7422ZM54.8672 53H52.7344V44.6328H53.25L53.9531 45.625C54.2969 45.3125 54.6875 45.0729 55.125 44.9062C55.5625 44.7344 56.0156 44.6484 56.4844 44.6484H58.3672V46.7734H56.4844C56.2604 46.7734 56.0495 46.8151 55.8516 46.8984C55.6536 46.9818 55.4818 47.0964 55.3359 47.2422C55.1901 47.388 55.0755 47.5599 54.9922 47.7578C54.9089 47.9557 54.8672 48.1667 54.8672 48.3906V53ZM62.5312 50.9531C62.6146 50.9792 62.6979 50.9974 62.7812 51.0078C62.8646 51.013 62.9479 51.0156 63.0312 51.0156C63.2396 51.0156 63.4401 50.987 63.6328 50.9297C63.8255 50.8724 64.0052 50.7917 64.1719 50.6875C64.3438 50.5781 64.4948 50.4479 64.625 50.2969C64.7604 50.1406 64.8698 49.9688 64.9531 49.7812L66.5156 51.3516C66.3177 51.6328 66.0885 51.8854 65.8281 52.1094C65.5729 52.3333 65.2943 52.5234 64.9922 52.6797C64.6953 52.8359 64.3802 52.9531 64.0469 53.0312C63.7188 53.1146 63.3802 53.1562 63.0312 53.1562C62.4427 53.1562 61.888 53.0469 61.3672 52.8281C60.8516 52.6094 60.3984 52.3047 60.0078 51.9141C59.6224 51.5234 59.3177 51.0599 59.0938 50.5234C58.8698 49.9818 58.7578 49.388 58.7578 48.7422C58.7578 48.0807 58.8698 47.4766 59.0938 46.9297C59.3177 46.3828 59.6224 45.9167 60.0078 45.5312C60.3984 45.1458 60.8516 44.8464 61.3672 44.6328C61.888 44.4193 62.4427 44.3125 63.0312 44.3125C63.3802 44.3125 63.7214 44.3542 64.0547 44.4375C64.388 44.5208 64.7031 44.6406 65 44.7969C65.3021 44.9531 65.5833 45.1458 65.8438 45.375C66.1042 45.599 66.3333 45.8516 66.5312 46.1328L62.5312 50.9531ZM63.625 46.5547C63.526 46.5182 63.4271 46.4948 63.3281 46.4844C63.2344 46.474 63.1354 46.4688 63.0312 46.4688C62.7396 46.4688 62.4635 46.5234 62.2031 46.6328C61.9479 46.737 61.724 46.888 61.5312 47.0859C61.3438 47.2839 61.1953 47.5234 61.0859 47.8047C60.9766 48.0807 60.9219 48.3932 60.9219 48.7422C60.9219 48.8203 60.9245 48.9089 60.9297 49.0078C60.9401 49.1068 60.9531 49.2083 60.9688 49.3125C60.9896 49.4115 61.013 49.5078 61.0391 49.6016C61.0651 49.6953 61.099 49.7786 61.1406 49.8516L63.625 46.5547Z" fill="black"/>
<path d="M1.43066 21.1758C1.43066 20.6543 1.53027 20.165 1.72949 19.708C1.92871 19.251 2.19824 18.8525 2.53809 18.5127C2.88379 18.167 3.28516 17.8945 3.74219 17.6953C4.19922 17.4961 4.68848 17.3965 5.20996 17.3965H10.9932V19.9189H5.20996C5.03418 19.9189 4.87012 19.9512 4.71777 20.0156C4.56543 20.0801 4.43066 20.1709 4.31348 20.2881C4.20215 20.3994 4.11426 20.5312 4.0498 20.6836C3.98535 20.8359 3.95312 21 3.95312 21.1758C3.95312 21.3516 3.98535 21.5186 4.0498 21.6768C4.11426 21.8291 4.20215 21.9639 4.31348 22.0811C4.43066 22.1924 4.56543 22.2803 4.71777 22.3447C4.87012 22.4092 5.03418 22.4414 5.20996 22.4414H7.73242C8.25391 22.4414 8.74316 22.541 9.2002 22.7402C9.66309 22.9336 10.0645 23.2031 10.4043 23.5488C10.75 23.8887 11.0195 24.29 11.2129 24.7529C11.4121 25.21 11.5117 25.6992 11.5117 26.2207C11.5117 26.7422 11.4121 27.2314 11.2129 27.6885C11.0195 28.1455 10.75 28.5469 10.4043 28.8926C10.0645 29.2324 9.66309 29.502 9.2002 29.7012C8.74316 29.9004 8.25391 30 7.73242 30H2.13379V27.4775H7.73242C7.9082 27.4775 8.07227 27.4453 8.22461 27.3809C8.37695 27.3164 8.50879 27.2285 8.62012 27.1172C8.7373 27 8.82812 26.8652 8.89258 26.7129C8.95703 26.5605 8.98926 26.3965 8.98926 26.2207C8.98926 26.0449 8.95703 25.8809 8.89258 25.7285C8.82812 25.5762 8.7373 25.4443 8.62012 25.333C8.50879 25.2158 8.37695 25.125 8.22461 25.0605C8.07227 24.9961 7.9082 24.9639 7.73242 24.9639H5.20996C4.68848 24.9639 4.19922 24.8643 3.74219 24.665C3.28516 24.4658 2.88379 24.1963 2.53809 23.8564C2.19824 23.5107 1.92871 23.1094 1.72949 22.6523C1.53027 22.1895 1.43066 21.6973 1.43066 21.1758ZM15.3174 30H12.918V16.8428H15.3174V21C15.6045 20.7832 15.9004 20.6309 16.2051 20.543C16.5098 20.4492 16.8203 20.4023 17.1367 20.4023C17.7168 20.4023 18.2617 20.5137 18.7715 20.7363C19.2812 20.9531 19.7236 21.2549 20.0986 21.6416C20.4795 22.0225 20.7783 22.4707 20.9951 22.9863C21.2178 23.4961 21.3291 24.041 21.3291 24.6211V30H18.9121V24.6211H18.9297C18.9297 24.375 18.8828 24.1436 18.7891 23.9268C18.6953 23.7041 18.5664 23.5107 18.4023 23.3467C18.2383 23.1826 18.0479 23.0537 17.8311 22.96C17.6143 22.8662 17.3828 22.8193 17.1367 22.8193C16.8848 22.8193 16.6475 22.8662 16.4248 22.96C16.2021 23.0537 16.0088 23.1826 15.8447 23.3467C15.6807 23.5107 15.5518 23.7041 15.458 23.9268C15.3643 24.1436 15.3174 24.375 15.3174 24.6211V30ZM32.1572 30H31.5771L30.6455 28.708C30.417 28.9131 30.1738 29.1064 29.916 29.2881C29.6641 29.4639 29.3975 29.6191 29.1162 29.7539C28.835 29.8828 28.5449 29.9854 28.2461 30.0615C27.9531 30.1377 27.6543 30.1758 27.3496 30.1758C26.6875 30.1758 26.0635 30.0645 25.4775 29.8418C24.8975 29.6191 24.3877 29.2969 23.9482 28.875C23.5146 28.4473 23.1719 27.9258 22.9199 27.3105C22.668 26.6953 22.542 25.9951 22.542 25.21C22.542 24.4775 22.668 23.8066 22.9199 23.1973C23.1719 22.582 23.5146 22.0547 23.9482 21.6152C24.3877 21.1758 24.8975 20.8359 25.4775 20.5957C26.0635 20.3496 26.6875 20.2266 27.3496 20.2266C27.6543 20.2266 27.9561 20.2646 28.2549 20.3408C28.5537 20.417 28.8438 20.5225 29.125 20.6572C29.4062 20.792 29.6729 20.9502 29.9248 21.1318C30.1826 21.3135 30.4229 21.5098 30.6455 21.7207L31.5771 20.6045H32.1572V30ZM29.7402 25.21C29.7402 24.8818 29.6758 24.5654 29.5469 24.2607C29.4238 23.9502 29.2539 23.6777 29.0371 23.4434C28.8203 23.2031 28.5654 23.0127 28.2725 22.8721C27.9854 22.7256 27.6777 22.6523 27.3496 22.6523C27.0215 22.6523 26.7109 22.708 26.418 22.8193C26.1309 22.9307 25.8789 23.0947 25.6621 23.3115C25.4512 23.5283 25.2842 23.7979 25.1611 24.1201C25.0381 24.4365 24.9766 24.7998 24.9766 25.21C24.9766 25.6201 25.0381 25.9863 25.1611 26.3086C25.2842 26.625 25.4512 26.8916 25.6621 27.1084C25.8789 27.3252 26.1309 27.4893 26.418 27.6006C26.7109 27.7119 27.0215 27.7676 27.3496 27.7676C27.6777 27.7676 27.9854 27.6973 28.2725 27.5566C28.5654 27.4102 28.8203 27.2197 29.0371 26.9854C29.2539 26.7451 29.4238 26.4727 29.5469 26.168C29.6758 25.8574 29.7402 25.5381 29.7402 25.21ZM43.0908 30H42.5107L41.5791 28.708C41.3506 28.9131 41.1074 29.1064 40.8496 29.2881C40.5977 29.4639 40.3311 29.6191 40.0498 29.7539C39.7686 29.8828 39.4785 29.9854 39.1797 30.0615C38.8867 30.1377 38.5879 30.1758 38.2832 30.1758C37.6211 30.1758 36.9971 30.0527 36.4111 29.8066C35.8311 29.5547 35.3213 29.209 34.8818 28.7695C34.4482 28.3242 34.1055 27.7998 33.8535 27.1963C33.6016 26.5869 33.4756 25.9248 33.4756 25.21C33.4756 24.501 33.6016 23.8418 33.8535 23.2324C34.1055 22.623 34.4482 22.0957 34.8818 21.6504C35.3213 21.2051 35.8311 20.8564 36.4111 20.6045C36.9971 20.3525 37.6211 20.2266 38.2832 20.2266C38.4941 20.2266 38.7109 20.2441 38.9336 20.2793C39.1621 20.3145 39.3818 20.373 39.5928 20.4551C39.8096 20.5312 40.0117 20.6338 40.1992 20.7627C40.3867 20.8916 40.5449 21.0498 40.6738 21.2373V16.8428H43.0908V30ZM40.6738 25.21C40.6738 24.8818 40.6094 24.5654 40.4805 24.2607C40.3574 23.9502 40.1875 23.6777 39.9707 23.4434C39.7539 23.2031 39.499 23.0127 39.2061 22.8721C38.9189 22.7256 38.6113 22.6523 38.2832 22.6523C37.9551 22.6523 37.6445 22.7109 37.3516 22.8281C37.0645 22.9453 36.8125 23.1152 36.5957 23.3379C36.3848 23.5547 36.2178 23.8213 36.0947 24.1377C35.9717 24.4541 35.9102 24.8115 35.9102 25.21C35.9102 25.5557 35.9717 25.8838 36.0947 26.1943C36.2178 26.5049 36.3848 26.7773 36.5957 27.0117C36.8125 27.2461 37.0645 27.4307 37.3516 27.5654C37.6445 27.7002 37.9551 27.7676 38.2832 27.7676C38.6113 27.7676 38.9189 27.6973 39.2061 27.5566C39.499 27.4102 39.7539 27.2197 39.9707 26.9854C40.1875 26.7451 40.3574 26.4727 40.4805 26.168C40.6094 25.8574 40.6738 25.5381 40.6738 25.21ZM54.0244 25.21C54.0244 25.9131 53.8984 26.5693 53.6465 27.1787C53.3945 27.7822 53.0518 28.3066 52.6182 28.752C52.1846 29.1914 51.6748 29.54 51.0889 29.7979C50.5088 30.0498 49.8848 30.1758 49.2168 30.1758C48.5547 30.1758 47.9307 30.0498 47.3447 29.7979C46.7646 29.54 46.2549 29.1914 45.8154 28.752C45.3818 28.3066 45.0391 27.7822 44.7871 27.1787C44.5352 26.5693 44.4092 25.9131 44.4092 25.21C44.4092 24.4951 44.5352 23.833 44.7871 23.2236C45.0391 22.6143 45.3818 22.0898 45.8154 21.6504C46.2549 21.2051 46.7646 20.8564 47.3447 20.6045C47.9307 20.3525 48.5547 20.2266 49.2168 20.2266C49.8848 20.2266 50.5088 20.3467 51.0889 20.5869C51.6748 20.8213 52.1846 21.1582 52.6182 21.5977C53.0518 22.0312 53.3945 22.5557 53.6465 23.1709C53.8984 23.7803 54.0244 24.46 54.0244 25.21ZM51.6074 25.21C51.6074 24.8232 51.543 24.4746 51.4141 24.1641C51.291 23.8477 51.1211 23.5781 50.9043 23.3555C50.6875 23.127 50.4326 22.9541 50.1396 22.8369C49.8525 22.7139 49.5449 22.6523 49.2168 22.6523C48.8887 22.6523 48.5781 22.7139 48.2852 22.8369C47.998 22.9541 47.7461 23.127 47.5293 23.3555C47.3184 23.5781 47.1514 23.8477 47.0283 24.1641C46.9053 24.4746 46.8438 24.8232 46.8438 25.21C46.8438 25.5732 46.9053 25.9102 47.0283 26.2207C47.1514 26.5312 47.3184 26.8008 47.5293 27.0293C47.7461 27.2578 47.998 27.4395 48.2852 27.5742C48.5781 27.7031 48.8887 27.7676 49.2168 27.7676C49.5449 27.7676 49.8525 27.7061 50.1396 27.583C50.4326 27.46 50.6875 27.2871 50.9043 27.0645C51.1211 26.8418 51.291 26.5723 51.4141 26.2559C51.543 25.9395 51.6074 25.5908 51.6074 25.21ZM67.2344 26.5986C67.2344 27.0908 67.1406 27.5566 66.9531 27.9961C66.7656 28.4297 66.5078 28.8076 66.1797 29.1299C65.8574 29.4521 65.4766 29.707 65.0371 29.8945C64.6035 30.082 64.1377 30.1758 63.6396 30.1758C63.1943 30.1758 62.7666 30.0996 62.3564 29.9473C61.9463 29.7891 61.5742 29.5605 61.2402 29.2617C60.9121 29.5605 60.543 29.7891 60.1328 29.9473C59.7285 30.0996 59.3008 30.1758 58.8496 30.1758C58.3516 30.1758 57.8857 30.082 57.4521 29.8945C57.0186 29.707 56.6377 29.4521 56.3096 29.1299C55.9873 28.8076 55.7324 28.4297 55.5449 27.9961C55.3574 27.5566 55.2637 27.0908 55.2637 26.5986V20.6045H57.6631V26.5986C57.6631 26.7627 57.6924 26.918 57.751 27.0645C57.8154 27.2051 57.9004 27.3311 58.0059 27.4424C58.1172 27.5479 58.2432 27.6328 58.3838 27.6973C58.5303 27.7559 58.6855 27.7852 58.8496 27.7852C59.0137 27.7852 59.1689 27.7559 59.3154 27.6973C59.4619 27.6328 59.5908 27.5479 59.7021 27.4424C59.8135 27.3311 59.8984 27.2051 59.957 27.0645C60.0215 26.918 60.0537 26.7627 60.0537 26.5986V20.6045H62.4443V26.5986C62.4443 26.7627 62.4766 26.918 62.541 27.0645C62.6055 27.2051 62.6904 27.3311 62.7959 27.4424C62.9072 27.5479 63.0332 27.6328 63.1738 27.6973C63.3203 27.7559 63.4756 27.7852 63.6396 27.7852C63.8037 27.7852 63.959 27.7559 64.1055 27.6973C64.252 27.6328 64.3779 27.5479 64.4834 27.4424C64.5947 27.3311 64.6826 27.2051 64.7471 27.0645C64.8115 26.918 64.8438 26.7627 64.8438 26.5986V20.6045H67.2344V26.5986Z" fill="black"/>
<path d="M7 16L7 33" stroke="white" stroke-width="2"/>
<path d="M47 40V55" stroke="white" stroke-width="2"/>
<path d="M1 34L69 34" stroke="black" stroke-width="2"/>
<path d="M63 16V31" stroke="white" stroke-width="2"/>
<path d="M43 34H58" stroke="white" stroke-width="2"/>
<path d="M20.5807 41.4194L9.64939 54.3526M20.5807 41.4194L21.3563 45.3597M20.5807 41.4194L16.5662 41.3111" stroke="black"/>
<path d="M22.6051 39.0244L20.5808 41.4194" stroke="black"/>
<path d="M10.4338 41.4338L22.1386 53.6715M10.4338 41.4338L14.4341 41.0793M10.4338 41.4338L9.90165 45.4144" stroke="black"/>
<path d="M8.26617 39.1676L10.4337 41.4338" stroke="black"/>
</svg>
