<?xml version="1.0" standalone="no"?>
<!DOCTYPE svg PUBLIC "-//W3C//DTD SVG 20010904//EN"
 "http://www.w3.org/TR/2001/REC-SVG-20010904/DTD/svg10.dtd">
<svg version="1.0" xmlns="http://www.w3.org/2000/svg"
 width="700.000000pt" height="700.000000pt" viewBox="0 0 700.000000 700.000000"
 preserveAspectRatio="xMidYMid meet">
<metadata>
Created by potrace 1.14, written by Peter Selinger 2001-2017
</metadata>
<g transform="translate(0.000000,700.000000) scale(0.100000,-0.100000)"
fill="#000000" stroke="none">
<path d="M1290 4660 l0 -660 120 0 120 0 0 283 c0 252 2 286 19 322 62 138
245 149 318 20 22 -39 23 -48 23 -332 l0 -293 121 0 120 0 -3 323 -3 323 -37
75 c-69 140 -195 226 -346 236 -76 5 -90 2 -194 -42 -17 -7 -18 7 -18 199 l0
206 -120 0 -120 0 0 -660z"/>
<path d="M4070 5105 c0 -118 -4 -215 -8 -215 -5 0 -17 9 -26 19 -27 30 -110
61 -179 67 -129 12 -263 -40 -363 -140 -100 -100 -144 -211 -144 -361 0 -142
52 -265 151 -360 171 -164 413 -176 600 -31 l57 44 46 -64 c39 -54 50 -64 76
-64 l30 0 0 660 0 660 -120 0 -120 0 0 -215z m-134 -405 c99 -56 150 -178 120
-284 -34 -114 -125 -189 -230 -188 -154 1 -261 150 -226 316 33 158 199 235
336 156z"/>
<path d="M415 5246 c-173 -54 -289 -227 -270 -402 21 -200 191 -344 405 -344
l50 0 0 130 0 130 -55 0 c-96 0 -145 44 -145 128 0 72 63 122 155 122 l45 0 0
125 0 125 -72 -1 c-40 0 -91 -6 -113 -13z"/>
<path d="M800 5135 l0 -125 150 0 150 0 0 125 0 125 -150 0 -150 0 0 -125z"/>
<path d="M2660 4974 c-249 -48 -405 -241 -404 -499 1 -150 48 -271 140 -361
98 -96 260 -149 388 -127 79 13 163 51 231 102 l51 39 44 -64 c40 -56 49 -64
78 -64 l32 0 0 470 0 470 -33 0 c-27 0 -39 -9 -76 -55 l-44 -55 -26 21 c-58
45 -118 80 -170 100 -55 20 -163 32 -211 23z m165 -263 c90 -41 151 -146 143
-248 -10 -139 -110 -237 -240 -236 -138 2 -228 101 -228 253 0 108 42 184 124
225 61 31 142 33 201 6z"/>
<path d="M4825 4969 c-247 -50 -416 -302 -378 -564 57 -398 527 -563 807 -282
102 101 146 210 146 356 0 227 -113 396 -314 470 -69 26 -189 35 -261 20z
m200 -260 c179 -84 178 -373 -1 -460 -96 -46 -206 -22 -276 61 -43 49 -58 98
-58 181 0 73 22 129 66 173 67 67 182 86 269 45z"/>
<path d="M5532 4588 l3 -353 34 -63 c56 -104 143 -164 265 -185 80 -13 180 8
245 54 44 31 44 31 70 12 14 -11 32 -23 39 -27 9 -6 12 88 12 453 l0 461 -100
0 -100 0 0 -324 0 -324 -28 -30 c-37 -40 -88 -50 -136 -27 -65 31 -66 38 -66
390 l0 315 -120 0 -121 0 3 -352z"/>
<path d="M6480 4625 c0 -342 -2 -357 -54 -385 -26 -13 -26 -14 -26 -136 l0
-122 43 10 c102 22 193 93 244 189 l28 54 3 353 3 352 -121 0 -120 0 0 -315z"/>
<path d="M800 4629 c0 -118 1 -128 20 -134 29 -9 68 -61 76 -100 8 -45 -22
-104 -64 -124 l-32 -16 0 -129 0 -128 38 6 c62 12 155 60 201 107 24 24 58 73
75 109 28 59 31 74 31 160 0 88 -3 101 -33 162 -52 106 -156 186 -268 207
l-44 8 0 -128z"/>
<path d="M210 4125 l0 -125 195 0 195 0 0 125 0 125 -195 0 -195 0 0 -125z"/>
<path d="M100 3600 l0 -100 2100 0 2100 0 0 100 0 100 -2100 0 -2100 0 0 -100z"/>
<path d="M5800 3600 l0 -100 550 0 550 0 0 100 0 100 -550 0 -550 0 0 -100z"/>
<path d="M2128 3019 l-93 -111 -186 7 -186 7 -6 -48 c-3 -27 -4 -50 -3 -51 1
-1 68 -6 148 -10 l145 -8 -182 -215 c-100 -118 -185 -214 -188 -212 -9 4 -411
422 -415 431 -1 4 61 13 140 20 78 6 144 13 146 15 2 2 0 25 -3 50 -9 54 11
52 -214 30 l-166 -16 -101 105 -101 106 -37 -38 -36 -37 81 -79 c131 -130 123
-102 93 -315 -14 -100 -24 -183 -22 -185 2 -1 24 -5 50 -8 54 -7 47 -25 72
167 8 59 17 110 19 112 5 5 422 -435 422 -445 0 -5 -128 -161 -285 -346 -157
-185 -286 -340 -288 -345 -2 -4 14 -21 35 -37 l38 -30 289 342 290 343 126
-132 c69 -72 202 -211 295 -308 93 -98 172 -178 175 -178 4 0 21 15 39 34 l33
34 -243 253 c-133 140 -268 281 -301 314 l-58 61 187 222 c143 169 189 218
194 204 3 -9 17 -73 30 -141 l23 -123 44 5 c23 2 46 8 50 11 3 4 -10 89 -30
189 l-36 182 81 95 c44 52 87 102 94 111 12 15 9 21 -26 48 l-39 31 -94 -111z"/>
<path d="M3690 2705 l0 -165 -50 0 -50 0 0 -110 0 -110 49 0 49 0 4 -167 c3
-164 4 -169 35 -235 40 -84 97 -142 181 -181 62 -30 76 -32 195 -35 l127 -4 0
105 0 105 -108 3 c-101 4 -112 6 -145 32 -63 48 -71 74 -75 235 l-4 142 166 0
167 0 -3 108 -3 107 -162 3 -163 2 0 165 0 165 -105 0 -105 0 0 -165z"/>
<path d="M2874 2806 c-23 -7 -62 -27 -87 -44 -177 -123 -200 -361 -48 -513 84
-84 133 -99 322 -99 171 0 205 -9 234 -64 23 -42 14 -94 -21 -127 -25 -24 -27
-24 -297 -29 l-272 -5 -3 -113 -3 -113 293 3 c334 3 343 5 436 92 69 65 103
143 103 239 0 136 -63 240 -186 305 -47 25 -60 27 -232 32 l-182 5 -29 28
c-36 35 -46 77 -28 120 25 62 23 62 330 67 l281 5 3 113 3 112 -288 -1 c-205
0 -300 -4 -329 -13z"/>
<path d="M6191 2554 c-148 -40 -260 -153 -300 -302 -7 -24 -12 -80 -12 -125 0
-185 89 -332 245 -403 162 -74 341 -43 474 81 l57 54 -79 80 -80 80 -24 -34
c-32 -44 -113 -85 -169 -85 -24 0 -43 3 -43 6 0 3 86 109 190 235 105 126 193
235 196 242 6 18 -91 109 -147 137 -97 50 -205 62 -308 34z m163 -216 c-5 -7
-60 -82 -123 -166 -129 -173 -135 -175 -135 -47 0 138 81 224 212 225 40 0 51
-3 46 -12z"/>
<path d="M4800 2452 l0 -110 34 -20 c71 -42 112 -129 103 -217 -8 -82 -50
-150 -109 -181 -28 -15 -28 -15 -28 -125 l0 -111 28 6 c92 22 205 104 258 188
92 146 90 364 -6 503 -57 83 -159 153 -248 171 l-32 7 0 -111z"/>
<path d="M4534 2520 c-103 -51 -188 -158 -218 -275 -54 -205 40 -422 223 -514
l61 -31 0 120 c0 118 -1 122 -29 158 -71 91 -69 212 5 309 23 31 25 38 22 148
l-3 116 -61 -31z"/>
<path d="M5270 2120 l0 -420 110 0 110 0 0 250 c0 232 2 254 20 290 33 64 76
80 215 80 l116 0 -3 108 -3 107 -93 3 c-140 4 -247 -23 -328 -83 -20 -15 -22
-13 -55 35 -27 40 -40 50 -61 50 l-28 0 0 -420z"/>
</g>
</svg>
