<svg width="70" height="70" viewBox="0 0 70 70" fill="none" xmlns="http://www.w3.org/2000/svg">
<rect width="70" height="70" rx="35" fill="white"/>
<path d="M26.335 43.1367C26.335 42.7311 26.4124 42.3506 26.5674 41.9951C26.7223 41.6396 26.932 41.3298 27.1963 41.0654C27.4652 40.7965 27.7773 40.5846 28.1328 40.4297C28.4883 40.2747 28.8688 40.1973 29.2744 40.1973H33.7725V42.1592H29.2744C29.1377 42.1592 29.0101 42.1842 28.8916 42.2344C28.7731 42.2845 28.6683 42.3551 28.5771 42.4463C28.4906 42.5329 28.4222 42.6354 28.3721 42.7539C28.3219 42.8724 28.2969 43 28.2969 43.1367C28.2969 43.2734 28.3219 43.4033 28.3721 43.5264C28.4222 43.6449 28.4906 43.7497 28.5771 43.8408C28.6683 43.9274 28.7731 43.9958 28.8916 44.0459C29.0101 44.096 29.1377 44.1211 29.2744 44.1211H31.2363C31.6419 44.1211 32.0225 44.1986 32.3779 44.3535C32.738 44.5039 33.0501 44.7135 33.3145 44.9824C33.5833 45.2467 33.793 45.5589 33.9434 45.9189C34.0983 46.2744 34.1758 46.6549 34.1758 47.0605C34.1758 47.4661 34.0983 47.8467 33.9434 48.2021C33.793 48.5576 33.5833 48.8698 33.3145 49.1387C33.0501 49.403 32.738 49.6126 32.3779 49.7676C32.0225 49.9225 31.6419 50 31.2363 50H26.8818V48.0381H31.2363C31.373 48.0381 31.5007 48.013 31.6191 47.9629C31.7376 47.9128 31.8402 47.8444 31.9268 47.7578C32.0179 47.6667 32.0885 47.5618 32.1387 47.4434C32.1888 47.3249 32.2139 47.1973 32.2139 47.0605C32.2139 46.9238 32.1888 46.7962 32.1387 46.6777C32.0885 46.5592 32.0179 46.4567 31.9268 46.3701C31.8402 46.279 31.7376 46.2083 31.6191 46.1582C31.5007 46.1081 31.373 46.083 31.2363 46.083H29.2744C28.8688 46.083 28.4883 46.0055 28.1328 45.8506C27.7773 45.6956 27.4652 45.486 27.1963 45.2217C26.932 44.9528 26.7223 44.6406 26.5674 44.2852C26.4124 43.9251 26.335 43.5423 26.335 43.1367ZM38.8174 50C38.3662 50 37.9424 49.9157 37.5459 49.7471C37.1494 49.5739 36.8008 49.3392 36.5 49.043C36.2038 48.7422 35.9691 48.3936 35.7959 47.9971C35.6273 47.6006 35.543 47.1768 35.543 46.7256V44.5518H34.6338V42.6924H35.543V39.7666H37.4023V42.6924H40.2324V44.5518H37.4023V46.7256C37.4023 46.9215 37.4388 47.1061 37.5117 47.2793C37.5846 47.4479 37.6849 47.596 37.8125 47.7236C37.9401 47.8512 38.0905 47.9538 38.2637 48.0312C38.4368 48.1042 38.6214 48.1406 38.8174 48.1406H40.2324V50H38.8174ZM48.3604 46.2744C48.3604 46.8213 48.2624 47.3317 48.0664 47.8057C47.8704 48.2751 47.6038 48.6829 47.2666 49.0293C46.9294 49.3711 46.5329 49.6423 46.0771 49.8428C45.626 50.0387 45.1406 50.1367 44.6211 50.1367C44.1061 50.1367 43.6208 50.0387 43.165 49.8428C42.7139 49.6423 42.3174 49.3711 41.9756 49.0293C41.6383 48.6829 41.3717 48.2751 41.1758 47.8057C40.9798 47.3317 40.8818 46.8213 40.8818 46.2744C40.8818 45.7184 40.9798 45.2035 41.1758 44.7295C41.3717 44.2555 41.6383 43.8477 41.9756 43.5059C42.3174 43.1595 42.7139 42.8883 43.165 42.6924C43.6208 42.4964 44.1061 42.3984 44.6211 42.3984C45.1406 42.3984 45.626 42.4919 46.0771 42.6787C46.5329 42.861 46.9294 43.123 47.2666 43.4648C47.6038 43.8021 47.8704 44.21 48.0664 44.6885C48.2624 45.1624 48.3604 45.6911 48.3604 46.2744ZM46.4805 46.2744C46.4805 45.9736 46.4303 45.7025 46.3301 45.4609C46.2344 45.2148 46.1022 45.0052 45.9336 44.832C45.765 44.6543 45.5667 44.5199 45.3389 44.4287C45.1156 44.333 44.8763 44.2852 44.6211 44.2852C44.3659 44.2852 44.1243 44.333 43.8965 44.4287C43.6732 44.5199 43.4772 44.6543 43.3086 44.832C43.1445 45.0052 43.0146 45.2148 42.9189 45.4609C42.8232 45.7025 42.7754 45.9736 42.7754 46.2744C42.7754 46.557 42.8232 46.819 42.9189 47.0605C43.0146 47.3021 43.1445 47.5117 43.3086 47.6895C43.4772 47.8672 43.6732 48.0085 43.8965 48.1133C44.1243 48.2135 44.3659 48.2637 44.6211 48.2637C44.8763 48.2637 45.1156 48.2158 45.3389 48.1201C45.5667 48.0244 45.765 47.89 45.9336 47.7168C46.1022 47.5436 46.2344 47.334 46.3301 47.0879C46.4303 46.8418 46.4805 46.5706 46.4805 46.2744ZM51.2588 50H49.3926V42.6787H49.8438L50.459 43.5469C50.7598 43.2734 51.1016 43.0638 51.4844 42.918C51.8672 42.7676 52.2637 42.6924 52.6738 42.6924H54.3213V44.5518H52.6738C52.4779 44.5518 52.2933 44.5882 52.1201 44.6611C51.9469 44.734 51.7965 44.8343 51.6689 44.9619C51.5413 45.0895 51.4411 45.2399 51.3682 45.4131C51.2952 45.5863 51.2588 45.7708 51.2588 45.9668V50ZM57.9648 48.209C58.0378 48.2318 58.1107 48.2477 58.1836 48.2568C58.2565 48.2614 58.3294 48.2637 58.4023 48.2637C58.5846 48.2637 58.7601 48.2386 58.9287 48.1885C59.0973 48.1383 59.2546 48.0677 59.4004 47.9766C59.5508 47.8809 59.6829 47.7669 59.7969 47.6348C59.9154 47.498 60.0111 47.3477 60.084 47.1836L61.4512 48.5576C61.278 48.8037 61.0775 49.0247 60.8496 49.2207C60.6263 49.4167 60.3825 49.583 60.1182 49.7197C59.8584 49.8564 59.5827 49.959 59.291 50.0273C59.0039 50.1003 58.7077 50.1367 58.4023 50.1367C57.8874 50.1367 57.402 50.041 56.9463 49.8496C56.4951 49.6582 56.0986 49.3916 55.7568 49.0498C55.4196 48.708 55.153 48.3024 54.957 47.833C54.7611 47.359 54.6631 46.8395 54.6631 46.2744C54.6631 45.6956 54.7611 45.167 54.957 44.6885C55.153 44.21 55.4196 43.8021 55.7568 43.4648C56.0986 43.1276 56.4951 42.8656 56.9463 42.6787C57.402 42.4919 57.8874 42.3984 58.4023 42.3984C58.7077 42.3984 59.0062 42.4349 59.2979 42.5078C59.5895 42.5807 59.8652 42.6855 60.125 42.8223C60.3893 42.959 60.6354 43.1276 60.8633 43.3281C61.0911 43.5241 61.2917 43.7451 61.4648 43.9912L57.9648 48.209ZM58.9219 44.3604C58.8353 44.3285 58.7487 44.3079 58.6621 44.2988C58.5801 44.2897 58.4935 44.2852 58.4023 44.2852C58.1471 44.2852 57.9056 44.333 57.6777 44.4287C57.4544 44.5199 57.2585 44.652 57.0898 44.8252C56.9258 44.9984 56.7959 45.208 56.7002 45.4541C56.6045 45.6956 56.5566 45.9691 56.5566 46.2744C56.5566 46.3428 56.5589 46.4202 56.5635 46.5068C56.5726 46.5934 56.584 46.6823 56.5977 46.7734C56.6159 46.86 56.6364 46.9443 56.6592 47.0264C56.682 47.1084 56.7116 47.1813 56.748 47.2451L58.9219 44.3604Z" fill="black"/>
<path d="M7.33496 21.1367C7.33496 20.7311 7.41243 20.3506 7.56738 19.9951C7.72233 19.6396 7.93197 19.3298 8.19629 19.0654C8.46517 18.7965 8.77734 18.5846 9.13281 18.4297C9.48828 18.2747 9.86882 18.1973 10.2744 18.1973H14.7725V20.1592H10.2744C10.1377 20.1592 10.0101 20.1842 9.8916 20.2344C9.77311 20.2845 9.66829 20.3551 9.57715 20.4463C9.49056 20.5329 9.4222 20.6354 9.37207 20.7539C9.32194 20.8724 9.29688 21 9.29688 21.1367C9.29688 21.2734 9.32194 21.4033 9.37207 21.5264C9.4222 21.6449 9.49056 21.7497 9.57715 21.8408C9.66829 21.9274 9.77311 21.9958 9.8916 22.0459C10.0101 22.096 10.1377 22.1211 10.2744 22.1211H12.2363C12.6419 22.1211 13.0225 22.1986 13.3779 22.3535C13.738 22.5039 14.0501 22.7135 14.3145 22.9824C14.5833 23.2467 14.793 23.5589 14.9434 23.9189C15.0983 24.2744 15.1758 24.6549 15.1758 25.0605C15.1758 25.4661 15.0983 25.8467 14.9434 26.2021C14.793 26.5576 14.5833 26.8698 14.3145 27.1387C14.0501 27.403 13.738 27.6126 13.3779 27.7676C13.0225 27.9225 12.6419 28 12.2363 28H7.88184V26.0381H12.2363C12.373 26.0381 12.5007 26.013 12.6191 25.9629C12.7376 25.9128 12.8402 25.8444 12.9268 25.7578C13.0179 25.6667 13.0885 25.5618 13.1387 25.4434C13.1888 25.3249 13.2139 25.1973 13.2139 25.0605C13.2139 24.9238 13.1888 24.7962 13.1387 24.6777C13.0885 24.5592 13.0179 24.4567 12.9268 24.3701C12.8402 24.279 12.7376 24.2083 12.6191 24.1582C12.5007 24.1081 12.373 24.083 12.2363 24.083H10.2744C9.86882 24.083 9.48828 24.0055 9.13281 23.8506C8.77734 23.6956 8.46517 23.486 8.19629 23.2217C7.93197 22.9528 7.72233 22.6406 7.56738 22.2852C7.41243 21.9251 7.33496 21.5423 7.33496 21.1367ZM18.1357 28H16.2695V17.7666H18.1357V21C18.359 20.8314 18.5892 20.7129 18.8262 20.6445C19.0632 20.5716 19.3047 20.5352 19.5508 20.5352C20.002 20.5352 20.4258 20.6217 20.8223 20.7949C21.2188 20.9635 21.5628 21.1982 21.8545 21.499C22.1507 21.7952 22.3831 22.1439 22.5518 22.5449C22.7249 22.9414 22.8115 23.3652 22.8115 23.8164V28H20.9316V23.8164H20.9453C20.9453 23.625 20.9089 23.445 20.8359 23.2764C20.763 23.1032 20.6628 22.9528 20.5352 22.8252C20.4076 22.6976 20.2594 22.5973 20.0908 22.5244C19.9222 22.4515 19.7422 22.415 19.5508 22.415C19.3548 22.415 19.1702 22.4515 18.9971 22.5244C18.8239 22.5973 18.6735 22.6976 18.5459 22.8252C18.4183 22.9528 18.318 23.1032 18.2451 23.2764C18.1722 23.445 18.1357 23.625 18.1357 23.8164V28ZM31.2334 28H30.7822L30.0576 26.9951C29.8799 27.1546 29.6908 27.305 29.4902 27.4463C29.2943 27.583 29.0869 27.7038 28.8682 27.8086C28.6494 27.9089 28.4238 27.9886 28.1914 28.0479C27.9635 28.1071 27.7311 28.1367 27.4941 28.1367C26.9792 28.1367 26.4938 28.0501 26.0381 27.877C25.5869 27.7038 25.1904 27.4531 24.8486 27.125C24.5114 26.7923 24.2448 26.3867 24.0488 25.9082C23.8529 25.4297 23.7549 24.8851 23.7549 24.2744C23.7549 23.7048 23.8529 23.1829 24.0488 22.709C24.2448 22.2305 24.5114 21.8203 24.8486 21.4785C25.1904 21.1367 25.5869 20.8724 26.0381 20.6855C26.4938 20.4941 26.9792 20.3984 27.4941 20.3984C27.7311 20.3984 27.9658 20.4281 28.1982 20.4873C28.4307 20.5465 28.6562 20.6286 28.875 20.7334C29.0938 20.8382 29.3011 20.9613 29.4971 21.1025C29.6976 21.2438 29.8844 21.3965 30.0576 21.5605L30.7822 20.6924H31.2334V28ZM29.3535 24.2744C29.3535 24.0192 29.3034 23.7731 29.2031 23.5361C29.1074 23.2946 28.9753 23.0827 28.8066 22.9004C28.638 22.7135 28.4398 22.5654 28.2119 22.4561C27.9886 22.3421 27.7493 22.2852 27.4941 22.2852C27.2389 22.2852 26.9974 22.3285 26.7695 22.415C26.5462 22.5016 26.3503 22.6292 26.1816 22.7979C26.0176 22.9665 25.8877 23.1761 25.792 23.4268C25.6963 23.6729 25.6484 23.9554 25.6484 24.2744C25.6484 24.5934 25.6963 24.8783 25.792 25.1289C25.8877 25.375 26.0176 25.5824 26.1816 25.751C26.3503 25.9196 26.5462 26.0472 26.7695 26.1338C26.9974 26.2204 27.2389 26.2637 27.4941 26.2637C27.7493 26.2637 27.9886 26.209 28.2119 26.0996C28.4398 25.9857 28.638 25.8376 28.8066 25.6553C28.9753 25.4684 29.1074 25.2565 29.2031 25.0195C29.3034 24.778 29.3535 24.5296 29.3535 24.2744ZM39.7373 28H39.2861L38.5615 26.9951C38.3838 27.1546 38.1947 27.305 37.9941 27.4463C37.7982 27.583 37.5908 27.7038 37.3721 27.8086C37.1533 27.9089 36.9277 27.9886 36.6953 28.0479C36.4674 28.1071 36.235 28.1367 35.998 28.1367C35.4831 28.1367 34.9977 28.041 34.542 27.8496C34.0908 27.6536 33.6943 27.3848 33.3525 27.043C33.0153 26.6966 32.7487 26.2887 32.5527 25.8193C32.3568 25.3454 32.2588 24.8304 32.2588 24.2744C32.2588 23.723 32.3568 23.2103 32.5527 22.7363C32.7487 22.2624 33.0153 21.8522 33.3525 21.5059C33.6943 21.1595 34.0908 20.8883 34.542 20.6924C34.9977 20.4964 35.4831 20.3984 35.998 20.3984C36.1621 20.3984 36.3307 20.4121 36.5039 20.4395C36.6816 20.4668 36.8525 20.5124 37.0166 20.5762C37.1852 20.6354 37.3424 20.7152 37.4883 20.8154C37.6341 20.9157 37.7572 21.0387 37.8574 21.1846V17.7666H39.7373V28ZM37.8574 24.2744C37.8574 24.0192 37.8073 23.7731 37.707 23.5361C37.6113 23.2946 37.4792 23.0827 37.3105 22.9004C37.1419 22.7135 36.9437 22.5654 36.7158 22.4561C36.4925 22.3421 36.2533 22.2852 35.998 22.2852C35.7428 22.2852 35.5013 22.3307 35.2734 22.4219C35.0501 22.513 34.8542 22.6452 34.6855 22.8184C34.5215 22.987 34.3916 23.1943 34.2959 23.4404C34.2002 23.6865 34.1523 23.9645 34.1523 24.2744C34.1523 24.5433 34.2002 24.7985 34.2959 25.04C34.3916 25.2816 34.5215 25.4935 34.6855 25.6758C34.8542 25.8581 35.0501 26.0016 35.2734 26.1064C35.5013 26.2113 35.7428 26.2637 35.998 26.2637C36.2533 26.2637 36.4925 26.209 36.7158 26.0996C36.9437 25.9857 37.1419 25.8376 37.3105 25.6553C37.4792 25.4684 37.6113 25.2565 37.707 25.0195C37.8073 24.778 37.8574 24.5296 37.8574 24.2744ZM48.2412 24.2744C48.2412 24.8213 48.1432 25.3317 47.9473 25.8057C47.7513 26.2751 47.4847 26.6829 47.1475 27.0293C46.8102 27.3711 46.4137 27.6423 45.958 27.8428C45.5068 28.0387 45.0215 28.1367 44.502 28.1367C43.987 28.1367 43.5016 28.0387 43.0459 27.8428C42.5947 27.6423 42.1982 27.3711 41.8564 27.0293C41.5192 26.6829 41.2526 26.2751 41.0566 25.8057C40.8607 25.3317 40.7627 24.8213 40.7627 24.2744C40.7627 23.7184 40.8607 23.2035 41.0566 22.7295C41.2526 22.2555 41.5192 21.8477 41.8564 21.5059C42.1982 21.1595 42.5947 20.8883 43.0459 20.6924C43.5016 20.4964 43.987 20.3984 44.502 20.3984C45.0215 20.3984 45.5068 20.4919 45.958 20.6787C46.4137 20.861 46.8102 21.123 47.1475 21.4648C47.4847 21.8021 47.7513 22.21 47.9473 22.6885C48.1432 23.1624 48.2412 23.6911 48.2412 24.2744ZM46.3613 24.2744C46.3613 23.9736 46.3112 23.7025 46.2109 23.4609C46.1152 23.2148 45.9831 23.0052 45.8145 22.832C45.6458 22.6543 45.4476 22.5199 45.2197 22.4287C44.9964 22.333 44.7572 22.2852 44.502 22.2852C44.2467 22.2852 44.0052 22.333 43.7773 22.4287C43.554 22.5199 43.3581 22.6543 43.1895 22.832C43.0254 23.0052 42.8955 23.2148 42.7998 23.4609C42.7041 23.7025 42.6562 23.9736 42.6562 24.2744C42.6562 24.557 42.7041 24.819 42.7998 25.0605C42.8955 25.3021 43.0254 25.5117 43.1895 25.6895C43.3581 25.8672 43.554 26.0085 43.7773 26.1133C44.0052 26.2135 44.2467 26.2637 44.502 26.2637C44.7572 26.2637 44.9964 26.2158 45.2197 26.1201C45.4476 26.0244 45.6458 25.89 45.8145 25.7168C45.9831 25.5436 46.1152 25.334 46.2109 25.0879C46.3112 24.8418 46.3613 24.5706 46.3613 24.2744ZM58.5156 25.3545C58.5156 25.7373 58.4427 26.0996 58.2969 26.4414C58.151 26.7786 57.9505 27.0726 57.6953 27.3232C57.4447 27.5739 57.1484 27.7721 56.8066 27.918C56.4694 28.0638 56.1071 28.1367 55.7197 28.1367C55.3734 28.1367 55.0407 28.0775 54.7217 27.959C54.4027 27.8359 54.1133 27.6582 53.8535 27.4258C53.5983 27.6582 53.3112 27.8359 52.9922 27.959C52.6777 28.0775 52.3451 28.1367 51.9941 28.1367C51.6068 28.1367 51.2445 28.0638 50.9072 27.918C50.57 27.7721 50.2738 27.5739 50.0186 27.3232C49.7679 27.0726 49.5697 26.7786 49.4238 26.4414C49.278 26.0996 49.2051 25.7373 49.2051 25.3545V20.6924H51.0713V25.3545C51.0713 25.4821 51.0941 25.6029 51.1396 25.7168C51.1898 25.8262 51.2559 25.9242 51.3379 26.0107C51.4245 26.0928 51.5225 26.1589 51.6318 26.209C51.7458 26.2546 51.8665 26.2773 51.9941 26.2773C52.1217 26.2773 52.2425 26.2546 52.3564 26.209C52.4704 26.1589 52.5706 26.0928 52.6572 26.0107C52.7438 25.9242 52.8099 25.8262 52.8555 25.7168C52.9056 25.6029 52.9307 25.4821 52.9307 25.3545V20.6924H54.79V25.3545C54.79 25.4821 54.8151 25.6029 54.8652 25.7168C54.9154 25.8262 54.9814 25.9242 55.0635 26.0107C55.1501 26.0928 55.248 26.1589 55.3574 26.209C55.4714 26.2546 55.5921 26.2773 55.7197 26.2773C55.8473 26.2773 55.9681 26.2546 56.082 26.209C56.196 26.1589 56.2939 26.0928 56.376 26.0107C56.4626 25.9242 56.5309 25.8262 56.5811 25.7168C56.6312 25.6029 56.6562 25.4821 56.6562 25.3545V20.6924H58.5156V25.3545Z" fill="black"/>
<path d="M11 16L11 33" stroke="white" stroke-width="2"/>
<path d="M45 40V55" stroke="white" stroke-width="2"/>
<path d="M3 34H66" stroke="black" stroke-width="2"/>
<path d="M55 16V31" stroke="white" stroke-width="2"/>
<path d="M43 34L54 34" stroke="white" stroke-width="2"/>
<path d="M22.9362 42.2951L14.7858 51.9381M22.9362 42.2951L23.5145 45.233M22.9362 42.2951L19.943 42.2144" stroke="black"/>
<path d="M24.4456 40.5093L22.9362 42.2951" stroke="black"/>
<path d="M15.3706 42.3059L24.0978 51.4303M15.3706 42.3059L18.3533 42.0415M15.3706 42.3059L14.9738 45.2738" stroke="black"/>
<path d="M13.7544 40.6161L15.3706 42.3058" stroke="black"/>
</svg>
